# xmcd
#
# Track frame offsets:
#	150
#	23567
#	39074
#	55398
#	80868
#	115010
#	142467
#	160161
#	176266
#	191343
#	209170
#	230007
#	246270
#	254562
#	270531
#	279741
#
# Disc length: 3921 seconds
#
# Revision: 0
# Processed by: cddbd v1.5.2PL0 Copyright (c) Steve Scherf et al.
# Submitted via: dBpowerAMP V4.0
#
DISCID=ec0f4f10
DTITLE=Billy Joel - Best
DYEAR=1900
DGENRE=
TTITLE0=01 The Stranger
TTITLE1=02 Movin' Out
TTITLE2=03 The Way You are
TTITLE3=04 Piano Man
TTITLE4=05 Scenes From An Italian Restaurant
TTITLE5=06 New York State Of Mind
TTITLE6=07 Only The Good Die Young
TTITLE7=08 Vienna
TTITLE8=09 She's Always A Woman
TTITLE9=10 Get It Right The First Time
TTITLE10=11 Everybody Has A Dream
TTITLE11=12 Say Goodbye To Hollywood
TTITLE12=13 Root Beer Rag
TTITLE13=14 Weekend Song
TTITLE14=15 Souvnir
TTITLE15=16 You're My Home
EXTD=
EXTT0=
EXTT1=
EXTT2=
EXTT3=
EXTT4=
EXTT5=
EXTT6=
EXTT7=
EXTT8=
EXTT9=
EXTT10=
EXTT11=
EXTT12=
EXTT13=
EXTT14=
EXTT15=
PLAYORDER=
